<?xml version="1.0" encoding="UTF-8" standalone="no"?>
<!-- Generator: Adobe Illustrator 14.0.0, SVG Export Plug-In  -->

<svg
   xmlns:dc="http://purl.org/dc/elements/1.1/"
   xmlns:cc="http://creativecommons.org/ns#"
   xmlns:rdf="http://www.w3.org/1999/02/22-rdf-syntax-ns#"
   xmlns:svg="http://www.w3.org/2000/svg"
   xmlns="http://www.w3.org/2000/svg"
   xmlns:sodipodi="http://sodipodi.sourceforge.net/DTD/sodipodi-0.dtd"
   xmlns:inkscape="http://www.inkscape.org/namespaces/inkscape"
   version="1.1"
   x="0px"
   y="0px"
   width="285px"
   height="285px"
   viewBox="-0.866 -0.866 285 285"
   enable-background="new -0.866 -0.866 285 285"
   xml:space="preserve"
   id="svg2"
   inkscape:version="0.48.4 r9939"
   sodipodi:docname="logo-ubuntu_cof-black-hex.svg"><metadata
     id="metadata12"><rdf:RDF><cc:Work
         rdf:about=""><dc:format>image/svg+xml</dc:format><dc:type
           rdf:resource="http://purl.org/dc/dcmitype/StillImage" /><dc:title></dc:title></cc:Work></rdf:RDF></metadata><sodipodi:namedview
     pagecolor="#ffffff"
     bordercolor="#666666"
     borderopacity="1"
     objecttolerance="10"
     gridtolerance="10"
     guidetolerance="10"
     inkscape:pageopacity="0"
     inkscape:pageshadow="2"
     inkscape:window-width="1053"
     inkscape:window-height="618"
     id="namedview10"
     showgrid="false"
     inkscape:zoom="1.5882127"
     inkscape:cx="142.5"
     inkscape:cy="142.5"
     inkscape:window-x="781"
     inkscape:window-y="316"
     inkscape:window-maximized="0"
     inkscape:current-layer="svg2" /><defs
     id="defs4" /><path
     d="M 142.59375 0.875 C 64.31675 0.875 0.875 64.31475 0.875 142.59375 C 0.875 220.86775 64.31675 284.34375 142.59375 284.34375 C 220.87075 284.34375 284.34375 220.86675 284.34375 142.59375 C 284.34375 64.31475 220.87075 0.875 142.59375 0.875 z M 191.28125 40.21875 C 194.33064 40.297887 197.42219 41.1175 200.25 42.75 C 209.301 47.976 212.38225 59.54275 207.15625 68.59375 C 201.93325 77.64075 190.3625 80.727 181.3125 75.5 C 172.2645 70.277 169.18225 58.7345 174.40625 49.6875 C 177.99913 43.464938 184.5726 40.044649 191.28125 40.21875 z M 142.59375 60.40625 C 150.20275 60.40625 157.5705 61.44 164.5625 63.375 C 165.7985 70.976 170.308 78.00425 177.5 82.15625 C 184.683 86.30425 192.9935 86.68675 200.1875 83.96875 C 214.1805 97.72575 223.298 116.4685 224.625 137.3125 L 197.65625 137.6875 C 195.17325 109.4555 171.47075 87.3125 142.59375 87.3125 C 134.27275 87.3125 126.3895 89.17575 119.3125 92.46875 L 106.15625 68.90625 C 117.13825 63.46625 129.50775 60.40625 142.59375 60.40625 z M 97 74.21875 L 110.8125 97.375 C 96.6015 107.377 87.3125 123.89275 87.3125 142.59375 C 87.3125 161.29775 96.6015 177.8125 110.8125 187.8125 L 97 211 C 80.44 199.937 68.116 183.03075 63 163.21875 C 68.978 158.34775 72.78125 150.90875 72.78125 142.59375 C 72.78125 134.27675 68.977 126.872 63 122 C 68.117 102.19 80.44 85.28275 97 74.21875 z M 46.21875 123.6875 C 56.66875 123.6875 65.15625 132.13975 65.15625 142.59375 C 65.15625 153.04275 56.66775 161.53125 46.21875 161.53125 C 35.76575 161.53125 27.3125 153.04275 27.3125 142.59375 C 27.3125 132.14075 35.76575 123.6875 46.21875 123.6875 z M 197.65625 147.5 L 224.625 147.90625 C 223.3 168.75025 214.1795 187.46075 200.1875 201.21875 C 192.9935 198.49975 184.683 198.9165 177.5 203.0625 C 170.307 207.2175 165.7985 214.2115 164.5625 221.8125 C 157.5695 223.7475 150.20275 224.8125 142.59375 224.8125 C 129.50775 224.8125 117.13925 221.71925 106.15625 216.28125 L 119.3125 192.71875 C 126.3905 196.01175 134.27175 197.875 142.59375 197.875 C 171.47075 197.875 195.17525 175.736 197.65625 147.5 z M 190.28125 207.15625 C 196.98974 206.98218 203.56475 210.37394 207.15625 216.59375 C 212.38125 225.64375 209.298 237.2135 200.25 242.4375 C 191.199 247.6625 179.63225 244.58225 174.40625 235.53125 C 169.18325 226.48425 172.29275 214.9125 181.34375 209.6875 C 184.17125 208.055 187.23194 207.23537 190.28125 207.15625 z "
     id="path6"
     transform="translate(-0.866,-0.866)"
     style="fill:#a8a8a8;fill-opacity:1" /></svg>