<?xml version="1.0" encoding="UTF-8" standalone="no"?>
<!-- Created with Inkscape (http://www.inkscape.org/) -->

<svg
   xmlns:dc="http://purl.org/dc/elements/1.1/"
   xmlns:cc="http://creativecommons.org/ns#"
   xmlns:rdf="http://www.w3.org/1999/02/22-rdf-syntax-ns#"
   xmlns:svg="http://www.w3.org/2000/svg"
   xmlns="http://www.w3.org/2000/svg"
   xmlns:sodipodi="http://sodipodi.sourceforge.net/DTD/sodipodi-0.dtd"
   xmlns:inkscape="http://www.inkscape.org/namespaces/inkscape"
   width="415.14001"
   height="415.14001"
   id="svg3839"
   version="1.1"
   inkscape:version="0.48.4 r9939"
   sodipodi:docname="rlogo.svg">
  <defs
     id="defs3841" />
  <sodipodi:namedview
     id="base"
     pagecolor="#ffffff"
     bordercolor="#666666"
     borderopacity="1.0"
     inkscape:pageopacity="0.0"
     inkscape:pageshadow="2"
     inkscape:zoom="0.61113281"
     inkscape:cx="179.7905"
     inkscape:cy="207.57086"
     inkscape:document-units="px"
     inkscape:current-layer="layer1"
     showgrid="false"
     fit-margin-top="0"
     fit-margin-left="0"
     fit-margin-right="0"
     fit-margin-bottom="0"
     inkscape:window-width="1003"
     inkscape:window-height="574"
     inkscape:window-x="98"
     inkscape:window-y="37"
     inkscape:window-maximized="0" />
  <metadata
     id="metadata3844">
    <rdf:RDF>
      <cc:Work
         rdf:about="">
        <dc:format>image/svg+xml</dc:format>
        <dc:type
           rdf:resource="http://purl.org/dc/dcmitype/StillImage" />
        <dc:title></dc:title>
      </cc:Work>
    </rdf:RDF>
  </metadata>
  <g
     inkscape:label="Layer 1"
     inkscape:groupmode="layer"
     id="layer1"
     transform="translate(-195.2095,-324.79304)">
    <g
       id="Layer_3"
       transform="translate(128.7025,282.01168)"
       style="fill:#bdbdbd;fill-opacity:1;stroke:none">
      <g
         id="g28"
         style="fill:#bdbdbd;fill-opacity:1;stroke:none">
        <g
           id="g30"
           style="fill:#bdbdbd;fill-opacity:1;stroke:none">
          <path
             d="M 191.98,152.432 C 160.139,134.431 128.298,116.43 96.457,98.429 c 0,1.511 0,3.022 0,4.533 31.841,-18.425 63.683,-36.85 95.523,-55.275 2.929,-1.694 0.286,-6.232 -2.649,-4.533 -31.841,18.425 -63.683,36.85 -95.523,55.275 -1.69,0.978 -1.718,3.562 0,4.533 31.841,18.001 63.682,36.002 95.523,54.003 2.951,1.668 5.596,-2.868 2.649,-4.533 l 0,0 z"
             id="path32"
             inkscape:connector-curvature="0"
             style="fill:#bdbdbd;fill-opacity:1;stroke:none" />
          <path
             d="M 287.501,97.411 C 255.661,79.325 223.821,61.24 191.98,43.154 c -2.948,-1.675 -5.592,2.862 -2.649,4.533 31.84,18.086 63.68,36.171 95.52,54.257 2.948,1.675 5.592,-2.862 2.65,-4.533 l 0,0 z"
             id="path34"
             inkscape:connector-curvature="0"
             style="fill:#bdbdbd;fill-opacity:1;stroke:none" />
          <path
             d="m 191.98,156.965 c 31.84,-18.34 63.68,-36.681 95.521,-55.021 2.932,-1.689 0.289,-6.226 -2.65,-4.533 -31.84,18.34 -63.68,36.681 -95.52,55.021 -2.932,1.689 -0.289,6.226 2.649,4.533 l 0,0 z"
             id="path36"
             inkscape:connector-curvature="0"
             style="fill:#bdbdbd;fill-opacity:1;stroke:none" />
          <path
             d="m 188.031,154.698 c 0,36.511 0,73.022 0,109.533 1.317,-0.755 2.633,-1.511 3.95,-2.267 -31.841,-18.085 -63.682,-36.17 -95.523,-54.256 -2.948,-1.674 -5.592,2.862 -2.649,4.533 31.841,18.085 63.682,36.17 95.523,54.256 1.725,0.98 3.95,-0.258 3.95,-2.267 0,-36.511 0,-73.022 0,-109.533 -0.001,-3.385 -5.251,-3.385 -5.251,0.001 l 0,0 z"
             id="path38"
             inkscape:connector-curvature="0"
             style="fill:#bdbdbd;fill-opacity:1;stroke:none" />
          <path
             d="m 191.98,266.498 c 22.671,-13.076 45.341,-26.151 68.012,-39.227 2.931,-1.69 0.289,-6.228 -2.649,-4.533 -22.671,13.076 -45.341,26.151 -68.012,39.227 -2.931,1.69 -0.289,6.227 2.649,4.533 l 0,0 z"
             id="path40"
             inkscape:connector-curvature="0"
             style="fill:#bdbdbd;fill-opacity:1;stroke:none" />
          <path
             d="m 283.551,99.677 c 0,26.577 0,53.153 0,79.73 0,3.386 5.25,3.386 5.25,0 0,-26.577 0,-53.153 0,-79.73 0,-3.385 -5.25,-3.385 -5.25,0 l 0,0 z"
             id="path42"
             inkscape:connector-curvature="0"
             style="fill:#bdbdbd;fill-opacity:1;stroke:none" />
          <path
             d="m 92.507,100.695 c 0,36.427 0,72.854 0,109.281 0,3.386 5.25,3.386 5.25,0 0,-36.427 0,-72.854 0,-109.281 0,-3.386 -5.25,-3.386 -5.25,0 l 0,0 z"
             id="path44"
             inkscape:connector-curvature="0"
             style="fill:#bdbdbd;fill-opacity:1;stroke:none" />
          <path
             d="m 191.98,343.479 c -31.841,-18 -63.682,-36.001 -95.523,-54.001 0,1.511 0,3.022 0,4.533 23.774,-13.756 47.548,-27.512 71.322,-41.267 2.929,-1.694 0.286,-6.232 -2.649,-4.533 -23.774,13.756 -47.548,27.511 -71.322,41.267 -1.69,0.978 -1.718,3.562 0,4.533 31.841,18 63.682,36.001 95.523,54.001 2.951,1.669 5.596,-2.866 2.649,-4.533 l 0,0 z"
             id="path46"
             inkscape:connector-curvature="0"
             style="fill:#bdbdbd;fill-opacity:1;stroke:none" />
          <path
             d="m 287.501,288.454 c -23.777,-13.453 -47.554,-26.906 -71.332,-40.359 -2.95,-1.669 -5.595,2.867 -2.649,4.533 23.777,13.453 47.554,26.906 71.331,40.359 2.951,1.669 5.595,-2.866 2.65,-4.533 l 0,0 z"
             id="path48"
             inkscape:connector-curvature="0"
             style="fill:#bdbdbd;fill-opacity:1;stroke:none" />
          <path
             d="m 191.98,348.013 c 31.84,-18.342 63.68,-36.684 95.521,-55.025 2.932,-1.688 0.289,-6.227 -2.65,-4.533 -31.84,18.342 -63.68,36.684 -95.52,55.025 -2.932,1.688 -0.289,6.226 2.649,4.533 l 0,0 z"
             id="path50"
             inkscape:connector-curvature="0"
             style="fill:#bdbdbd;fill-opacity:1;stroke:none" />
          <path
             d="m 188.031,345.746 c 0,36.512 0,73.022 0,109.534 1.317,-0.756 2.633,-1.511 3.95,-2.267 -31.841,-18.084 -63.682,-36.169 -95.523,-54.253 -2.948,-1.675 -5.592,2.862 -2.649,4.533 31.841,18.084 63.682,36.169 95.523,54.253 1.725,0.979 3.95,-0.258 3.95,-2.267 0,-36.512 0,-73.022 0,-109.534 -0.001,-3.385 -5.251,-3.385 -5.251,10e-4 l 0,0 z"
             id="path52"
             inkscape:connector-curvature="0"
             style="fill:#bdbdbd;fill-opacity:1;stroke:none" />
          <path
             d="m 191.98,457.547 c 31.84,-18.426 63.68,-36.851 95.521,-55.276 2.928,-1.694 0.286,-6.232 -2.65,-4.533 -31.84,18.426 -63.68,36.851 -95.52,55.276 -2.929,1.694 -0.286,6.232 2.649,4.533 l 0,0 z"
             id="path54"
             inkscape:connector-curvature="0"
             style="fill:#bdbdbd;fill-opacity:1;stroke:none" />
          <path
             d="m 283.551,290.721 c 0,36.428 0,72.855 0,109.283 0,3.386 5.25,3.386 5.25,0 0,-36.428 0,-72.855 0,-109.283 0,-3.386 -5.25,-3.386 -5.25,0 l 0,0 z"
             id="path56"
             inkscape:connector-curvature="0"
             style="fill:#bdbdbd;fill-opacity:1;stroke:none" />
          <path
             d="m 92.507,291.745 c 0,36.428 0,72.854 0,109.282 0,3.386 5.25,3.386 5.25,0 0,-36.428 0,-72.854 0,-109.282 0,-3.386 -5.25,-3.386 -5.25,0 l 0,0 z"
             id="path58"
             inkscape:connector-curvature="0"
             style="fill:#bdbdbd;fill-opacity:1;stroke:none" />
          <path
             d="m 355.262,247.194 c -31.757,-18.086 -63.513,-36.172 -95.27,-54.258 0,1.511 0,3.022 0,4.533 31.757,-18.342 63.513,-36.684 95.27,-55.025 2.93,-1.692 0.287,-6.229 -2.65,-4.533 -31.756,18.342 -63.513,36.684 -95.269,55.025 -1.695,0.979 -1.712,3.558 0,4.533 31.756,18.086 63.513,36.172 95.269,54.258 2.946,1.679 5.59,-2.858 2.65,-4.533 l 0,0 z"
             id="path60"
             inkscape:connector-curvature="0"
             style="fill:#bdbdbd;fill-opacity:1;stroke:none" />
          <path
             d="m 450.788,191.916 c -31.843,-18.001 -63.685,-36.003 -95.526,-54.004 -2.951,-1.668 -5.597,2.868 -2.65,4.533 31.843,18.001 63.685,36.003 95.526,54.004 2.951,1.668 5.596,-2.868 2.65,-4.533 l 0,0 z"
             id="path62"
             inkscape:connector-curvature="0"
             style="fill:#bdbdbd;fill-opacity:1;stroke:none" />
          <path
             d="m 355.262,251.728 c 31.842,-18.426 63.684,-36.853 95.526,-55.279 2.928,-1.695 0.286,-6.232 -2.65,-4.533 -31.842,18.426 -63.684,36.853 -95.526,55.279 -2.928,1.694 -0.287,6.231 2.65,4.533 l 0,0 z"
             id="path64"
             inkscape:connector-curvature="0"
             style="fill:#bdbdbd;fill-opacity:1;stroke:none" />
          <path
             d="m 351.312,249.461 c 0,36.426 0,72.851 0,109.276 1.316,-0.756 2.633,-1.511 3.95,-2.267 -22.587,-12.821 -45.174,-25.643 -67.761,-38.464 -2.949,-1.674 -5.594,2.862 -2.65,4.533 22.587,12.821 45.174,25.643 67.761,38.464 1.726,0.979 3.95,-0.258 3.95,-2.267 0,-36.426 0,-72.851 0,-109.276 0,-3.385 -5.25,-3.385 -5.25,0.001 l 0,0 z"
             id="path66"
             inkscape:connector-curvature="0"
             style="fill:#bdbdbd;fill-opacity:1;stroke:none" />
          <path
             d="m 355.262,361.004 c 31.842,-18.341 63.684,-36.681 95.526,-55.021 2.932,-1.688 0.289,-6.226 -2.65,-4.533 -31.842,18.341 -63.684,36.681 -95.526,55.021 -2.932,1.688 -0.29,6.225 2.65,4.533 l 0,0 z"
             id="path68"
             inkscape:connector-curvature="0"
             style="fill:#bdbdbd;fill-opacity:1;stroke:none" />
          <path
             d="m 446.838,194.182 c 0,36.511 0,73.023 0,109.534 0,3.386 5.25,3.386 5.25,0 0,-36.511 0,-73.022 0,-109.534 0,-3.386 -5.25,-3.386 -5.25,0 l 0,0 z"
             id="path70"
             inkscape:connector-curvature="0"
             style="fill:#bdbdbd;fill-opacity:1;stroke:none" />
          <path
             d="m 256.042,195.203 c 0,26.662 0,53.324 0,79.986 0,3.386 5.25,3.386 5.25,0 0,-26.662 0,-53.324 0,-79.986 0,-3.386 -5.25,-3.386 -5.25,0 l 0,0 z"
             id="path72"
             inkscape:connector-curvature="0"
             style="fill:#bdbdbd;fill-opacity:1;stroke:none" />
        </g>
      </g>
    </g>
  </g>
</svg>
